<svg xmlns="http://www.w3.org/2000/svg" viewBox="0 0 214.91 243.18"><defs><style>.cls-1{fill:#7c0e38;}</style></defs><g id="Layer_2" data-name="Layer 2"><g id="Layer_2-2" data-name="Layer 2"><path class="cls-1" d="M214.91,128.84c-51,1.12-108.8,1.4-160.14,1.5-17.8,0-35.59,0-53.38-.12l1.37-1.38c-.1,22-.37,49.36-.62,71.46-.18,13.82-.46,29.14-.75,42.88C1,229.46.88,214.12.62,200.31.43,177.64.05,150,0,127.48c18.26-.12,36.51-.11,54.77-.13,51.4.12,109,.35,160.14,1.49Z"/><path class="cls-1" d="M3.51,129.47A88.31,88.31,0,0,0,55,151.27a87.67,87.67,0,0,0,11.46.15,10.66,10.66,0,0,0,5.21-1.55c3.68-2.67.09-7.21-3.67-6.83a13.41,13.41,0,0,0-5.4,1.69l-.11-.22A13.64,13.64,0,0,1,68,142.56c3-.38,6.62,2.13,6,5.43s-4.56,4.25-7.36,4.6A91,91,0,0,1,.94,132.47l2.57-3Z"/><path class="cls-1" d="M4.63,131.07c9.11,18.82,20.18,37.38,37.46,49.62,16.47,12,40.9,16.73,58.63,4.84,7.24-4.89,10-16.79.55-20.83-5-2.23-11.08,3.1-9.25,8.31l-.23.09a6.39,6.39,0,0,1,.4-5.25c2.91-5.62,10-5.26,13.7-.58,4.93,6.08,1.32,15.06-4.43,19.22C89.66,195,73.73,195.81,60,192.06,31.68,184,13.57,157.89,1,132.9l3.65-1.83Z"/><path class="cls-1" d="M6.24,133c2.11,11.84,6.5,38.47,8.57,49.87,2.66,15.9,8.88,33.87,25.49,39.61,3.77,1.09,8.25,2,11.85,0,2.22-1.28,3.65-4.35,2.09-6.65-2.53-3.73-7.73-2.75-11.14-.83l-.12-.22a17.14,17.14,0,0,1,3.92-1.65c12.94-2.68,12.23,16.25-7,10.71-11.25-3.37-19.24-13.29-23.36-23.92S10.75,178,8.33,166.94L1.52,133.89,6.24,133Z"/><path class="cls-1" d="M23.71,165.68c11.56,11.74,31.09,13,44,2.72,5.14-3.94,8.68-9.49,13.3-14,11.76-11.44,30.45-15,45.58-8.69a23.12,23.12,0,0,1,8.26,5.21c3.46,3.39,4.75,10,.42,13.25-2.69,2.24-6.94,1.79-8.34-1.63a4.39,4.39,0,0,1,.42-4.61c-2.08,2.65.11,7,3.31,7.34a5.85,5.85,0,0,0,4.38-1.39c4-3.18,2.68-9.33-.64-12.52a22.37,22.37,0,0,0-8.1-4.93,42.77,42.77,0,0,0-44.63,8.66c-4.62,4.49-8.22,10.06-13.43,14-13.2,10.34-33.06,8.83-44.5-3.41Z"/><path class="cls-1" d="M91.05,190.6c7.89-4,16.9-7.87,26-5.9,9.09,1.72,15.88,11.06,14.63,20.25-1.06,9.13-9.58,16.89-18.92,16a14.54,14.54,0,0,1-8.32-3.29c-4.6-3.9-6.22-11.49-2.35-16.42a10.93,10.93,0,0,1,7.9-3.94,8.65,8.65,0,0,1,7.84,3.71c1.81,2.49,1.52,6.4-1.27,8.05-2.73,1.95-6.83-.92-5.71-4.14a.07.07,0,0,1,.14.05c-1.06,3.06,2.88,5.81,5.47,3.93,2.67-1.61,2.92-5.36,1.17-7.75a8.38,8.38,0,0,0-7.63-3.56,10.59,10.59,0,0,0-7.64,3.87c-3.71,4.76-2.09,12.14,2.36,15.86a14.09,14.09,0,0,0,8.08,3.14c9,.79,17.27-6.79,18.24-15.62a17.92,17.92,0,0,0-6.34-15.63c-4.5-3.91-10.84-4.82-16.59-3.93s-11.29,3.47-16.6,6.13a.47.47,0,0,1-.42-.84Z"/><path class="cls-1" d="M120,144.27c7.5,1,15,2.1,22.46,3.21,5.53.81,11.72,1.68,16,5.75,5.74,5.27,6.6,15.71.29,20.89-3,2.47-8,2.83-10.9-.07-4-3.91-1.87-10.76,4.09-10.27a4.54,4.54,0,0,1,2.56,1.16,4.5,4.5,0,0,0-2.57-1,5.16,5.16,0,0,0-5.62,4.79c-.13,6.44,7.42,8.48,11.9,4.72,5.83-4.88,4.85-14.57-.41-19.53-4.12-4-10-4.7-15.46-5.67-7.45-1.28-14.9-2.57-22.33-4Z"/><path class="cls-1" d="M41.59,150.59c7.06-.1,16.86,2.45,17.22,11,.18,3.95-3.65,7.95-7.71,6.82a4.35,4.35,0,0,1-3.36-4.33,3.21,3.21,0,0,1,4-3c-4.58-.45-4.6,5.8-.46,6.56,3.49.79,6.69-2.67,6.52-6.06a8.48,8.48,0,0,0-1.68-4.84c-3.33-4.51-9.33-5.43-14.54-6.16Z"/><path class="cls-1" d="M59.62,190.68c6.72.92,13.34,4.69,16.86,10.6,1.74,3,1.41,7.95-2.24,9.38-1.65.69-3.9.42-4.93-1.17s-.77-3.78.83-4.65a3.14,3.14,0,0,0-.43,4.36,3.46,3.46,0,0,0,4.23.75c3-1.41,3.17-5.57,1.65-8.2-3.4-5.71-9.6-9.43-16-11.07Z"/><path class="cls-1" d="M20.7,171.88a33.67,33.67,0,0,0,19.93,19.51c1.14.41,2.81.88,4,1.17-.69-.08-1.38-.16-2.08-.26l-2.05-.44-2-.63A27.93,27.93,0,0,1,20.7,171.88Z"/><path class="cls-1" d="M144.44,139.7A36.91,36.91,0,0,1,177,145c.6.46,1.19.93,1.78,1.41-1.1-.69-2.73-1.67-3.9-2.28a46.28,46.28,0,0,0-30.46-4.47Z"/><path class="cls-1" d="M162.63,182.05A14.14,14.14,0,0,1,139,176a12.94,12.94,0,0,1-.51-4.09,15,15,0,0,0,24.11,10.17Z"/><path class="cls-1" d="M118.06,148.7A27.56,27.56,0,0,0,95,152l-1.43,1c-.44.37-.89.73-1.36,1.09.39-.44.78-.87,1.19-1.29l1.3-1.19,1.42-1.05a22.33,22.33,0,0,1,21.93-1.87Z"/><path class="cls-1" d="M127.33,185.27A29.49,29.49,0,0,0,114,180.53a14.2,14.2,0,0,1,13.29,4.74Z"/><path class="cls-1" d="M60.15,183.45a39.29,39.29,0,0,0,25.12.62c1-.31,2.47-.85,3.47-1.23l-1.62.9a29.68,29.68,0,0,1-27-.29Z"/><path class="cls-1" d="M8.76,195.93a35,35,0,0,0,5.29,22l.92,1.38c.33.44.66.89,1,1.35-.4-.39-.8-.78-1.19-1.18a25.8,25.8,0,0,1-6-23.52Z"/><path class="cls-1" d="M82.21,197.66c7.92,3.32,7.43,14.94-.59,17.8a9.43,9.43,0,0,1-7.28-.34,9.89,9.89,0,0,0,3.57.42c9.6-.51,12.43-12.95,4.3-17.88Z"/><path class="cls-1" d="M29.72,135.85c5.41,3.76,11.76,7.41,18.56,6.66,5-.53,9.35-3.91,14.19-5.34a12.48,12.48,0,0,1,5.11-.47,13.29,13.29,0,0,0-5,.94c-4.83,1.77-8.88,5.27-14.23,5.86-7.09.75-13.58-3.16-18.67-7.65Z"/><path class="cls-1" d="M214.91,114.34c-51,1.14-108.8,1.38-160.14,1.49-18.26,0-36.51,0-54.77-.12,0-22.54.43-50.2.62-72.83C.91,29.06,1,13.75,1.39,0c.29,13.72.55,29.06.75,42.88.25,22.14.53,49.42.62,71.46L1.39,113c17.79-.1,35.58-.09,53.38-.11,51.4.08,109,.37,160.14,1.49Z"/><path class="cls-1" d="M.94,110.72A90.39,90.39,0,0,1,66.6,90.6c2.8.34,6.66,1.34,7.36,4.59s-3,5.81-6,5.43a13.64,13.64,0,0,1-5.48-2l.11-.22c3.09,1.74,7.85,2.89,10.08-.61a3.28,3.28,0,0,0-1-4.53,10.66,10.66,0,0,0-5.21-1.55A88.43,88.43,0,0,0,32.72,96.6,88,88,0,0,0,3.51,113.71l-2.57-3Z"/><path class="cls-1" d="M1,110.29C13.56,85.3,31.68,59.18,60,51.13c13.7-3.76,29.63-3,41.43,5.56,7.63,5.44,10.21,18.24,0,22.37-5.32,2.25-11.76-3.47-9.69-9l.23.09c-1.22,3.34,1.11,7.14,4.27,8.36,5,1.93,10.46-2.71,10.95-7.72.63-5.21-2.39-10.17-6.52-13.16-11.52-7.95-27-8.36-40.08-4.44C47.28,57.27,35.81,66.1,26.75,76.57s-16,22.91-22.12,35.54L1,110.29Z"/><path class="cls-1" d="M1.52,109.29C4,97.48,9.3,71.08,11.77,59.7c1.82-8.29,4.14-16.76,8.55-24.14C25.11,27.6,32.7,20.77,42,18.87c3.52-.63,7.47-1,10.66,1,2.55,1.58,4,5.24,2.14,7.85C52,31.67,46.54,30.61,43,28.43l.12-.22A16.88,16.88,0,0,0,47,29.7c6.19,1.69,11.26-4.85,5.16-9-3-1.72-6.65-1.25-9.87-.57C36.25,21.57,31,25.32,27,30c-7.35,8.41-10.15,19.57-12.15,30.36C12.74,71.6,8.3,98.55,6.24,110.18l-4.72-.89Z"/><path class="cls-1" d="M23.71,77.51C35.16,65.26,55,63.75,68.21,74.1c5.21,4,8.81,9.52,13.43,14a42.78,42.78,0,0,0,44.63,8.67,22.65,22.65,0,0,0,8.1-4.93c3.32-3.2,4.63-9.35.64-12.53a5.81,5.81,0,0,0-4.38-1.38c-3.2.34-5.38,4.68-3.31,7.33-2.18-2.66,0-7.13,3.27-7.58A6.17,6.17,0,0,1,135.24,79c4.32,3.24,3,9.86-.42,13.25a23.12,23.12,0,0,1-8.26,5.21c-15.13,6.27-33.82,2.75-45.58-8.69-4.62-4.53-8.16-10.08-13.3-14-12.87-10.25-32.42-9-44,2.73Z"/><path class="cls-1" d="M91.47,51.74c7.82,4,16.48,7.83,25.37,6,8.76-1.61,15.31-10.57,14.16-19.4-1-8.83-9.2-16.41-18.24-15.61a14,14,0,0,0-8.08,3.13c-4.45,3.72-6.07,11.11-2.36,15.87A10.62,10.62,0,0,0,110,45.56,8.36,8.36,0,0,0,117.59,42c1.75-2.39,1.51-6.14-1.17-7.74-2.59-1.89-6.53.86-5.47,3.92a.07.07,0,0,1-.14,0c-1.12-3.22,3-6.09,5.71-4.14,2.79,1.65,3.08,5.56,1.27,8A8.65,8.65,0,0,1,110,45.85a10.93,10.93,0,0,1-7.9-3.94C98.18,37,99.8,29.39,104.4,25.5a14.4,14.4,0,0,1,8.32-3.29c9.33-.86,17.86,6.89,18.92,16,1.25,9.19-5.54,18.53-14.63,20.25-9.07,2-18.06-1.93-26-5.9a.47.47,0,0,1,.42-.84Z"/><path class="cls-1" d="M120,98.91c7.43-1.4,14.88-2.69,22.33-4,5.46-1,11.35-1.71,15.46-5.67,5.26-5,6.24-14.65.41-19.53-4.44-3.76-12.06-1.7-11.9,4.72a5.16,5.16,0,0,0,5.62,4.8,4.51,4.51,0,0,0,2.57-1,4.56,4.56,0,0,1-2.56,1.17c-6,.48-8-6.37-4.09-10.28,2.89-2.89,7.85-2.54,10.9-.06,6.31,5.18,5.45,15.61-.29,20.88-4.27,4.07-10.46,4.94-16,5.75-7.48,1.12-15,2.22-22.46,3.21Z"/><path class="cls-1" d="M41.59,92.59C46.8,91.87,52.8,91,56.13,86.44a8.51,8.51,0,0,0,1.68-4.85c.17-3.39-3-6.85-6.52-6.06-4.14.77-4.12,7,.46,6.56a3.21,3.21,0,0,1-4-3,4.36,4.36,0,0,1,3.36-4.33c4.06-1.12,7.89,2.88,7.71,6.83-.36,8.53-10.16,11.08-17.22,11Z"/><path class="cls-1" d="M59.62,52.5c6.37-1.63,12.57-5.36,16-11.06,1.52-2.64,1.39-6.8-1.65-8.21a3.46,3.46,0,0,0-4.23.75,3.14,3.14,0,0,0,.43,4.36c-1.6-.87-1.78-3.19-.83-4.64a4.06,4.06,0,0,1,4.93-1.18c3.65,1.43,4,6.37,2.24,9.38C73,47.82,66.34,51.58,59.62,52.5Z"/><path class="cls-1" d="M20.7,71.3A27.93,27.93,0,0,1,38.48,52l2-.63,2.05-.44,2.08-.26c-1.16.29-2.84.76-4,1.17A33.7,33.7,0,0,0,20.7,71.3Z"/><path class="cls-1" d="M144.44,103.48A46.28,46.28,0,0,0,174.9,99c1.17-.61,2.79-1.58,3.9-2.28-.59.48-1.18,1-1.78,1.41a36.91,36.91,0,0,1-32.58,5.34Z"/><path class="cls-1" d="M162.63,61.13a14.8,14.8,0,0,0-23.14,6.24,15,15,0,0,0-1,3.93,12.94,12.94,0,0,1,.51-4.09,14.14,14.14,0,0,1,23.6-6.08Z"/><path class="cls-1" d="M118.06,94.49a22.33,22.33,0,0,1-21.93-1.88l-1.42-1-1.3-1.19c-.41-.42-.8-.85-1.19-1.29.78.64,1.94,1.53,2.79,2.08a27.59,27.59,0,0,0,23,3.33Z"/><path class="cls-1" d="M127.33,57.91A14.23,14.23,0,0,1,114,62.66a29.62,29.62,0,0,0,13.29-4.75Z"/><path class="cls-1" d="M60.15,59.73a29.71,29.71,0,0,1,27-.29q.81.44,1.62.9c-1-.38-2.44-.92-3.47-1.23a39.29,39.29,0,0,0-25.12.62Z"/><path class="cls-1" d="M8.76,47.25a25.8,25.8,0,0,1,6-23.52c.39-.4.79-.79,1.19-1.17-.57.77-1.38,1.9-1.9,2.72a35,35,0,0,0-5.29,22Z"/><path class="cls-1" d="M82.21,45.52c8.13-4.93,5.29-17.37-4.3-17.88a10.11,10.11,0,0,0-3.57.42,9.43,9.43,0,0,1,7.28-.34c8,2.86,8.51,14.48.59,17.8Z"/><path class="cls-1" d="M29.72,107.34c5.09-4.5,11.58-8.4,18.67-7.66,5.35.59,9.4,4.09,14.23,5.87a13.48,13.48,0,0,0,5,.93,12.48,12.48,0,0,1-5.11-.47c-4.84-1.42-9.18-4.81-14.19-5.33-6.8-.75-13.15,2.89-18.56,6.66Z"/></g></g></svg>