<svg xmlns="http://www.w3.org/2000/svg" viewBox="0 0 214.91 243.18"><defs><style>.cls-1{fill:#7c0e38;}</style></defs><g id="Layer_2" data-name="Layer 2"><g id="Layer_2-2" data-name="Layer 2"><path class="cls-1" d="M0,128.84c51-1.14,108.8-1.38,160.14-1.49,18.26,0,36.51,0,54.77.13,0,22.53-.43,50.19-.63,72.82-.28,13.82-.39,29.14-.76,42.88-.29-13.72-.55-29.06-.76-42.87-.24-22.15-.52-49.42-.61-71.47l1.37,1.38c-17.79.1-35.58.1-53.38.12-51.4-.09-109-.38-160.14-1.5Z"/><path class="cls-1" d="M214,132.47a91.48,91.48,0,0,1-48.17,20,90.45,90.45,0,0,1-17.49.07c-2.8-.34-6.66-1.34-7.36-4.59s3-5.81,6-5.43a13.7,13.7,0,0,1,5.48,1.95l-.11.22c-3.09-1.74-7.85-2.89-10.08.61a3.28,3.28,0,0,0,1,4.53,10.66,10.66,0,0,0,5.21,1.55,87.67,87.67,0,0,0,11.46-.15,89.57,89.57,0,0,0,22.31-4.68,88,88,0,0,0,29.21-17.12l2.57,3Z"/><path class="cls-1" d="M213.93,132.9c-12.59,25-30.7,51.1-59.05,59.16-13.7,3.75-29.63,3-41.43-5.57-7.63-5.43-10.21-18.24,0-22.37,5.32-2.25,11.76,3.47,9.69,9l-.23-.09c1.22-3.34-1.11-7.14-4.27-8.36-5-1.93-10.46,2.72-11,7.73-.63,5.2,2.39,10.16,6.51,13.15,11.53,7.95,27,8.37,40.09,4.45,13.36-4.07,24.83-12.9,33.89-23.37s16-22.9,22.12-35.54l3.65,1.83Z"/><path class="cls-1" d="M213.39,133.89c-2.52,11.81-7.78,38.21-10.25,49.6-1.82,8.28-4.14,16.75-8.55,24.14-4.79,8-12.38,14.78-21.68,16.69-3.52.62-7.47,1-10.66-1-2.55-1.58-4-5.24-2.14-7.85,2.82-3.91,8.26-2.84,11.82-.67l-.12.22a16.88,16.88,0,0,0-3.89-1.49c-6.19-1.69-11.26,4.85-5.16,9,3,1.72,6.65,1.26,9.87.58,6-1.42,11.29-5.17,15.32-9.8,7.35-8.41,10.15-19.57,12.15-30.36,2.07-11.28,6.51-38.24,8.57-49.87l4.72.89Z"/><path class="cls-1" d="M191.2,165.68c-11.45,12.25-31.28,13.75-44.5,3.41-5.21-4-8.81-9.53-13.44-14a42.75,42.75,0,0,0-44.62-8.66,22.37,22.37,0,0,0-8.1,4.93c-3.32,3.19-4.63,9.34-.64,12.52a5.85,5.85,0,0,0,4.38,1.39c3.2-.35,5.38-4.69,3.31-7.34,2.18,2.66,0,7.14-3.27,7.58a6.17,6.17,0,0,1-4.65-1.34c-4.32-3.24-3-9.86.42-13.25a23.12,23.12,0,0,1,8.26-5.21c15.13-6.27,33.82-2.75,45.58,8.69,4.62,4.53,8.16,10.08,13.3,14,12.87,10.25,32.42,9,44-2.72Z"/><path class="cls-1" d="M123.44,191.44c-7.82-4-16.48-7.82-25.37-6-8.76,1.61-15.31,10.57-14.16,19.4,1,8.83,9.2,16.41,18.24,15.62a14.09,14.09,0,0,0,8.08-3.14c4.45-3.72,6.07-11.1,2.36-15.86a10.59,10.59,0,0,0-7.64-3.87,8.38,8.38,0,0,0-7.63,3.56c-1.75,2.39-1.51,6.14,1.17,7.75,2.59,1.88,6.52-.87,5.47-3.93a.07.07,0,0,1,.14-.05c1.12,3.22-3,6.09-5.71,4.14-2.79-1.65-3.08-5.56-1.27-8.05a8.65,8.65,0,0,1,7.84-3.71,10.93,10.93,0,0,1,7.9,3.94c3.87,4.93,2.25,12.52-2.35,16.42a14.54,14.54,0,0,1-8.32,3.29c-9.34.86-17.86-6.9-18.92-16C82,195.76,88.81,186.42,97.9,184.7c9.06-2,18.06,1.93,26,5.9a.47.47,0,0,1-.42.84Z"/><path class="cls-1" d="M95,144.27c-7.43,1.4-14.88,2.69-22.34,4-5.45,1-11.34,1.71-15.45,5.67-5.26,5-6.24,14.65-.41,19.53,4.44,3.77,12.06,1.7,11.9-4.72A5.16,5.16,0,0,0,63,163.93a4.5,4.5,0,0,0-2.57,1A4.54,4.54,0,0,1,63,163.78c6-.49,8.06,6.37,4.1,10.27-2.89,2.9-7.85,2.54-10.9.07-6.31-5.19-5.45-15.61.29-20.89,4.27-4.07,10.46-4.93,16-5.75,7.48-1.11,15-2.21,22.46-3.21Z"/><path class="cls-1" d="M173.32,150.59c-5.21.72-11.21,1.65-14.54,6.16a8.48,8.48,0,0,0-1.68,4.84c-.17,3.39,3,6.85,6.52,6.06,4.14-.77,4.12-7-.46-6.56a3.21,3.21,0,0,1,4,3,4.35,4.35,0,0,1-3.36,4.33c-4.07,1.13-7.89-2.87-7.71-6.82.36-8.54,10.16-11.09,17.22-11Z"/><path class="cls-1" d="M155.29,190.68c-6.37,1.64-12.57,5.36-16,11.07-1.52,2.63-1.4,6.79,1.65,8.2a3.45,3.45,0,0,0,4.23-.75,3.14,3.14,0,0,0-.43-4.36c1.6.87,1.78,3.19.83,4.65a4.07,4.07,0,0,1-4.93,1.17c-3.65-1.43-4-6.36-2.24-9.38,3.52-5.91,10.14-9.68,16.86-10.6Z"/><path class="cls-1" d="M194.21,171.88a27.93,27.93,0,0,1-17.78,19.35l-2,.63-2,.44c-.7.1-1.39.18-2.08.26,1.16-.28,2.84-.76,4-1.17a33.67,33.67,0,0,0,19.93-19.51Z"/><path class="cls-1" d="M70.47,139.7A46.28,46.28,0,0,0,40,144.17c-1.17.61-2.79,1.58-3.9,2.28.59-.48,1.18-.95,1.78-1.41a36.91,36.91,0,0,1,32.58-5.34Z"/><path class="cls-1" d="M52.28,182.05a15,15,0,0,0,24.11-10.17,12.94,12.94,0,0,1-.51,4.09,14.14,14.14,0,0,1-23.6,6.08Z"/><path class="cls-1" d="M96.85,148.7a22.33,22.33,0,0,1,21.93,1.87l1.42,1.05,1.3,1.19c.41.42.8.85,1.19,1.29-.78-.64-1.94-1.52-2.79-2.08a27.56,27.56,0,0,0-23.05-3.32Z"/><path class="cls-1" d="M87.58,185.27a14.2,14.2,0,0,1,13.29-4.74,29.49,29.49,0,0,0-13.29,4.74Z"/><path class="cls-1" d="M154.76,183.45a29.68,29.68,0,0,1-27,.29q-.81-.44-1.62-.9c1,.38,2.44.92,3.47,1.23a39.29,39.29,0,0,0,25.12-.62Z"/><path class="cls-1" d="M206.15,195.93a25.83,25.83,0,0,1-6,23.52c-.39.4-.79.79-1.19,1.18.57-.78,1.38-1.91,1.9-2.73a35,35,0,0,0,5.29-22Z"/><path class="cls-1" d="M132.69,197.66c-8.12,4.94-5.28,17.37,4.31,17.88a9.89,9.89,0,0,0,3.57-.42,9.43,9.43,0,0,1-7.28.34c-8-2.86-8.51-14.48-.6-17.8Z"/><path class="cls-1" d="M185.19,135.85c-5.09,4.49-11.58,8.4-18.67,7.65-5.35-.59-9.4-4.09-14.23-5.86a13.29,13.29,0,0,0-5-.94,12.48,12.48,0,0,1,5.11.47c4.84,1.43,9.18,4.81,14.19,5.34,6.8.75,13.15-2.9,18.56-6.66Z"/><path class="cls-1" d="M0,114.34c51-1.12,108.8-1.4,160.14-1.49,17.8,0,35.59,0,53.38.11l-1.37,1.38c.1-22,.37-49.35.61-71.46.19-13.82.47-29.13.76-42.88.37,13.72.51,29.06.76,42.88.2,22.67.58,50.26.63,72.83-18.26.11-36.51.1-54.77.12-51.4-.12-109-.35-160.14-1.49Z"/><path class="cls-1" d="M211.4,113.71a88.31,88.31,0,0,0-51.52-21.8,89.46,89.46,0,0,0-11.46-.15,10.66,10.66,0,0,0-5.21,1.55c-3.68,2.67-.09,7.21,3.67,6.83a13.41,13.41,0,0,0,5.4-1.69l.11.22a13.7,13.7,0,0,1-5.48,2c-2.95.38-6.62-2.13-6-5.43s4.56-4.25,7.36-4.59A90.93,90.93,0,0,1,214,110.72l-2.57,3Z"/><path class="cls-1" d="M210.28,112.11c-9.11-18.82-20.18-37.38-37.46-49.62-16.47-12-40.9-16.73-58.64-4.84-7.23,4.89-10,16.79-.54,20.84a7,7,0,0,0,8.75-3.33,6.07,6.07,0,0,0,.5-5l.23-.09a6.41,6.41,0,0,1-.4,5.26c-2.91,5.61-10.06,5.25-13.7.57-4.93-6.08-1.32-15.06,4.43-19.22,11.8-8.53,27.73-9.32,41.43-5.56,28.35,8.06,46.46,34.16,59.05,59.16l-3.65,1.82Z"/><path class="cls-1" d="M208.67,110.18c-2.11-11.84-6.5-38.47-8.57-49.87-2.66-15.9-8.88-33.87-25.49-39.61-3.77-1.09-8.25-2-11.85,0-2.22,1.28-3.65,4.35-2.09,6.65,2.53,3.73,7.73,2.75,11.14.83l.12.22A17.14,17.14,0,0,1,168,30.08c-12.94,2.69-12.23-16.25,7-10.7,11.25,3.36,19.24,13.28,23.35,23.91s5.79,21.9,8.21,32.95l6.81,33.05-4.72.89Z"/><path class="cls-1" d="M191.2,77.51c-11.56-11.75-31.09-13-44-2.73-5.14,3.94-8.68,9.49-13.3,14-11.76,11.44-30.45,15-45.58,8.69a23.12,23.12,0,0,1-8.26-5.21c-3.47-3.39-4.75-10-.42-13.25,2.68-2.23,6.94-1.79,8.34,1.63a4.38,4.38,0,0,1-.42,4.61c2.07-2.65-.11-7-3.31-7.33a5.81,5.81,0,0,0-4.38,1.38c-4,3.18-2.68,9.33.64,12.53a22.65,22.65,0,0,0,8.1,4.93,42.75,42.75,0,0,0,44.62-8.67c4.63-4.49,8.23-10.06,13.44-14,13.2-10.34,33.06-8.84,44.5,3.41Z"/><path class="cls-1" d="M123.86,52.58c-7.89,4-16.9,7.87-26,5.9C88.81,56.76,82,47.42,83.27,38.23c1.06-9.13,9.58-16.89,18.92-16a14.4,14.4,0,0,1,8.32,3.29c4.6,3.89,6.22,11.48,2.35,16.41a10.93,10.93,0,0,1-7.9,3.94,8.63,8.63,0,0,1-7.84-3.71c-1.81-2.49-1.52-6.4,1.27-8,2.73-1.94,6.83.92,5.71,4.14a.07.07,0,0,1-.14,0c1.06-3.06-2.88-5.81-5.47-3.92-2.67,1.61-2.92,5.35-1.17,7.74A8.36,8.36,0,0,0,105,45.56a10.62,10.62,0,0,0,7.64-3.86c3.71-4.76,2.09-12.15-2.36-15.87a14,14,0,0,0-8.08-3.13c-9-.79-17.27,6.78-18.24,15.61A18,18,0,0,0,90.25,54c4.5,3.9,10.84,4.81,16.58,3.92s11.3-3.46,16.61-6.13a.47.47,0,0,1,.42.84Z"/><path class="cls-1" d="M95,98.91c-7.5-1-15-2.09-22.46-3.21C67,94.89,60.77,94,56.5,90c-5.74-5.27-6.6-15.7-.29-20.88,3-2.48,8-2.84,10.9.06C71.07,73,69,79.89,63,79.41a4.56,4.56,0,0,1-2.55-1.17,4.51,4.51,0,0,0,2.57,1,5.16,5.16,0,0,0,5.62-4.8c.12-6.44-7.42-8.48-11.9-4.72-5.83,4.88-4.85,14.57.41,19.53,4.12,4,10,4.7,15.45,5.67,7.46,1.28,14.91,2.57,22.34,4Z"/><path class="cls-1" d="M173.32,92.59c-7.06.1-16.87-2.45-17.22-11-.18-4,3.64-8,7.71-6.83a4.36,4.36,0,0,1,3.36,4.33,3.21,3.21,0,0,1-4,3c4.58.46,4.6-5.79.46-6.56-3.49-.78-6.69,2.67-6.52,6.06a8.51,8.51,0,0,0,1.68,4.85c3.33,4.51,9.33,5.43,14.54,6.15Z"/><path class="cls-1" d="M155.29,52.5c-6.72-.91-13.34-4.68-16.86-10.6-1.74-3-1.41-7.95,2.24-9.38a4.06,4.06,0,0,1,4.93,1.18c1,1.45.77,3.77-.83,4.64A3.14,3.14,0,0,0,145.2,34a3.46,3.46,0,0,0-4.23-.75c-3.05,1.41-3.17,5.57-1.65,8.21,3.4,5.71,9.59,9.42,16,11.06Z"/><path class="cls-1" d="M194.21,71.3a33.7,33.7,0,0,0-19.93-19.51c-1.14-.4-2.81-.88-4-1.17l2.08.26,2,.44,2,.63A27.93,27.93,0,0,1,194.21,71.3Z"/><path class="cls-1" d="M70.47,103.48a36.91,36.91,0,0,1-32.58-5.34c-.6-.46-1.19-.93-1.78-1.41,1.1.69,2.73,1.67,3.9,2.28a46.28,46.28,0,0,0,30.46,4.47Z"/><path class="cls-1" d="M52.28,61.13a14.14,14.14,0,0,1,23.6,6.08,12.94,12.94,0,0,1,.51,4.09,15,15,0,0,0-1-3.93,14.8,14.8,0,0,0-23.14-6.24Z"/><path class="cls-1" d="M96.85,94.49a27.6,27.6,0,0,0,23.05-3.33l1.43-1c.44-.37.89-.73,1.36-1.09-.39.44-.78.87-1.19,1.29l-1.3,1.19-1.42,1a22.33,22.33,0,0,1-21.93,1.88Z"/><path class="cls-1" d="M87.58,57.91a29.62,29.62,0,0,0,13.29,4.75,14.23,14.23,0,0,1-13.29-4.75Z"/><path class="cls-1" d="M154.76,59.73a39.29,39.29,0,0,0-25.12-.62c-1,.31-2.47.85-3.47,1.23q.81-.47,1.62-.9a29.71,29.71,0,0,1,27,.29Z"/><path class="cls-1" d="M206.15,47.25a35,35,0,0,0-5.29-22l-.92-1.38c-.33-.44-.66-.89-1-1.34.4.38.8.77,1.19,1.17a25.84,25.84,0,0,1,6,23.52Z"/><path class="cls-1" d="M132.69,45.52c-7.91-3.32-7.42-14.94.6-17.8a9.43,9.43,0,0,1,7.28.34,10.11,10.11,0,0,0-3.57-.42c-9.6.52-12.43,13-4.31,17.88Z"/><path class="cls-1" d="M185.19,107.34c-5.41-3.77-11.76-7.41-18.56-6.66-5,.52-9.35,3.91-14.19,5.33a12.48,12.48,0,0,1-5.11.47,13.48,13.48,0,0,0,5-.93c4.83-1.78,8.88-5.28,14.23-5.87,7.09-.74,13.58,3.16,18.67,7.66Z"/></g></g></svg>