<svg xmlns="http://www.w3.org/2000/svg" viewBox="0 0 116.57 116.57"><defs><style>.cls-1{fill:none;stroke:#7c0e38;stroke-miterlimit:10;stroke-width:2px;}.cls-2{fill:#e83497;}</style></defs><g id="Layer_2" data-name="Layer 2"><g id="dice"><rect class="cls-1" x="1" y="1" width="114.57" height="114.57" rx="13.61"/><g id="Layer_2-2" data-name="Layer 2"><g id="Layer_1-2" data-name="Layer 1-2"><path class="cls-2" d="M76.81,40.06A26,26,0,1,0,39.47,76.22c.19.2.39.39.59.59l.1.1a25.77,25.77,0,0,0,12,6.74,26.28,26.28,0,0,0,12.59,0l.26-.07A26,26,0,0,0,76.81,40.06Zm-25,9.78s-.1-5.86.76-8.15c0,0,.6,3.57,2.53,4.9C53.84,47.21,51.81,49.84,51.81,49.84Zm5.77,9.25c0-.07,1.75-2.88,3.45-.42-.06-.05-1.46-1.36-3.45.42Zm4,4.89c.22,0,.42-.19.64-.11.77.4,1.21.16,1.54-.6a1.13,1.13,0,0,1-.56.94,1.16,1.16,0,0,1-1-.07.13.13,0,0,0-.08,0,.65.65,0,0,0-.21.06,1,1,0,0,1-.3,0c-.66.06-1-.63-1-1.2.13.45.41,1,1,1Zm0,4.47C60.88,70,60,69.55,60,69.55a4.17,4.17,0,0,0,1.62-1.1Zm-.11.78,0,0h0a.43.43,0,0,1,0,.07l-.14.18h0l-.09.1s0,0,0,0l0,0-.07.05,0,0-.06,0-.05,0a.83.83,0,0,1-.16.09h0l-.07,0a.74.74,0,0,1-.33,0h-.13l-.09,0h0l.19-.08.18-.09.17-.08.28-.17.08-.06.11-.07,0,0,.13-.11,0,0,0,0h0l.18-.17h0a1.14,1.14,0,0,0,.16-.16h0c0,.1-.1.2-.15.28s0,0,0,.08Zm2.72-.51v.18s0,.07,0,.1v.06s0,.11,0,.16l0,.17a.36.36,0,0,1,0,.11v.06h0s0,0,0,.06l0,.11s0,0,0,.06a.94.94,0,0,0,0,.09l0,.09a2.14,2.14,0,0,1-.1.22l0,.06-.06.11,0,0-.07.11,0,0a.1.1,0,0,1,0,.05.81.81,0,0,1-.09.1l0,0,0,0,0,0-.1.09-.11.09-.12.08-.19.1-.07,0-.3.11-.13,0a.53.53,0,0,1-.12,0l-.18,0-.4,0h.09l0,0h0a.67.67,0,0,0,.12-.06l.08,0h0l.1-.06.06,0,.07,0h0l0,0,.17-.13,0,0h0l0,0h0l.11-.1,0,0h0l.16-.16,0-.06h0a.6.6,0,0,0,.08-.08l0,0,.06-.07.06-.07.06-.08a4.1,4.1,0,0,0,.42-.66,1.08,1.08,0,0,0,.08-.19,4.66,4.66,0,0,0,.26-.71l0-.11a.5.5,0,0,1,0-.12.13.13,0,0,0,0-.06v0l0-.06v0h0v0h0v0a1.87,1.87,0,0,0,0-.25h0v0s0,0,0,0,0,0,0,0v0c0,.2,0,.41.06.61Zm3-9a2.18,2.18,0,0,0-3-.47c.08-.07,2-1.84,3,.47ZM65.74,47A11.58,11.58,0,0,0,67.81,44c.48.88,0,4.74,0,4.74A6.39,6.39,0,0,0,65.74,47ZM67,75l-.07.28s0,.08,0,.13h0c0,.14-.07.27-.11.4l-.06.24-.17.56v0l0,.09,0,.12-.06.22c0,.09-.06.17-.08.25l0,.08s0,.09,0,.13l0,0a.43.43,0,0,1,0,0v0a.66.66,0,0,1,0,.11.43.43,0,0,1,0,0l0,0v0a.32.32,0,0,1,0,.06h0l-.24-.53h0s0,0,0,0h0v0h0a0,0,0,0,1,0,0l-.13-.3a6.18,6.18,0,0,0,.34-2.49h0l0-.11A1.61,1.61,0,0,0,65,73.35l-.09,0h0l-.1,0-.09,0h-.15l0,0h0l0,0,.08-.06v0h0l0,0h0l0,0h0v0h0l0,0h0a3.29,3.29,0,0,0-.43-.09A8.16,8.16,0,0,0,67.08,68a3.25,3.25,0,0,1,.4,1.17h0a.29.29,0,0,0,0,.09l0,.15h0l0,.16a.88.88,0,0,0,0,.16v0s0,.1,0,.16,0,.1,0,.16h0s0,.09,0,.14v.62h0v.22c0,.09,0,.19,0,.29v.29l0,.17,0,.3h0c0,.11,0,.21,0,.31s0,.31-.07.47l0,.15-.06.31c-.07.41-.16.82-.25,1.21,0,.14-.06.29-.1.43Zm.26,4.09c1.09-1.59,2.16-2.85,2.16-2.85,6.35-7.38.18-17.71.18-17.71.5-1.05.16-3.78.14-3.88h0a2.91,2.91,0,0,1,.22.51s0,.05,0,.08a1.73,1.73,0,0,1,.08.27,1.6,1.6,0,0,1,0,.21l0,.09,0,.18,0,.09h0a7.66,7.66,0,0,1,.09,1.35h0a2.44,2.44,0,0,1,0,.27v.07a.49.49,0,0,1,0,.12,6.62,6.62,0,0,0,.21-2.58v0a1.79,1.79,0,0,0,0-.23,0,0,0,0,0,0,0l0-.23a7.37,7.37,0,0,0-.16-.79,2.86,2.86,0,0,0-.07-.28s0-.1,0-.15-.11-.37-.17-.55a12.82,12.82,0,0,0-.57-1.45l-.11-.24a14.82,14.82,0,0,0-1.12-2h0c.16-.93.25-1.84.31-2.67v-.17l0-.59c0-1,0-1.89,0-2.5,0-.05,0-.11,0-.16a1.55,1.55,0,0,0,0-.22.53.53,0,0,0,0-.13v-.12c0-.07,0-.13,0-.17v0h0v-.07h0a18.77,18.77,0,0,1-4,3.71h0a8.16,8.16,0,0,0-1.06-.44,12.1,12.1,0,0,0-4.72-.41l-.2,0-.68.09-.18,0h-.08l-.18,0h0l-.16,0-.24.05h-.08l-.14,0h-.07l-.13,0h0l-.19,0h0l-.14,0h0l-.11,0h-.21l0,0h0l-.06,0h-.1l-.14-.17-.13-.17a9,9,0,0,1-.55-.82,1,1,0,0,0-.08-.14l-.14-.25-.12-.22a20.57,20.57,0,0,1-1.31-3.1.14.14,0,0,1,0-.06l-.07-.2q-.07-.22-.12-.42l0,0a.75.75,0,0,0,0-.16.29.29,0,0,0,0-.09s0-.05,0-.08v0s0-.06,0-.08h0v0l-.14.18,0,0,0,.07,0,.08,0,.07-.07.11-.05.09-.06.12h0l0,.07c-.06.12-.11.25-.17.38l-.06.17,0,.07,0,.16,0,.08c0,.1-.07.21-.11.32h0c0,.11-.06.22-.1.34h0a1.54,1.54,0,0,1,0,.17h0c0,.06,0,.12,0,.18l0,.09s0,.11,0,.17l0,.09,0,.18a.36.36,0,0,0,0,.1l-.09.37h0a1.16,1.16,0,0,0,0,.18h0c-.07.29-.12.59-.18.88s-.05.29-.08.43,0,.28-.07.42l0,.16c0,.1,0,.2-.05.3s0,.2,0,.3v.07a.22.22,0,0,0,0,.08h0c0,.09,0,.18,0,.27s0,.07,0,.11v0a.56.56,0,0,0,0,.07l0,.19h0l0,.24s0,0,0,.07,0,0,0,.08v0a.11.11,0,0,1,0,0v.06s0,.06,0,.08v0a.09.09,0,0,1,0,0v.06s0,0,0,0v.15h0v.16a.45.45,0,0,0,0,.11v.05a.11.11,0,0,1,0,0,.17.17,0,0,0,0,.07v0h0v.07C48.12,51.12,48,55.17,48,55.17s0,.26,0,.42h0s0,.09,0,.14h0c0,.07,0,.14,0,.22V56c0,.1,0,.21,0,.32s0,.12,0,.18,0,.12,0,.17h0c0,.12,0,.25,0,.38h0c0,.09,0,.19,0,.29l0,.41c0,.14,0,.28,0,.43h0c0,.14,0,.29,0,.43h0c0,.12,0,.23,0,.34h0q0,.52-.06,1.08c0,.1,0,.2,0,.31s0,.1,0,.16l0,.47,0,.31,0,.31,0,.62,0,.45c0,.1,0,.2,0,.3s0,.46-.05.69l0,.33s0,.1,0,.16,0,.41,0,.61l0,.14c0,.1,0,.19,0,.28l0,.27c0,.11,0,.21,0,.31h0a.78.78,0,0,1,0,.16s0,.08,0,.11v.13s0,0,0,.06a.43.43,0,0,1,0,0s0,.07,0,.1v0s0,0,0,0v0a.51.51,0,0,1,0,.13h0v0h0v0h0l0,.09h0a.06.06,0,0,1,0,0l0,0A10.09,10.09,0,0,1,46,68.74c0,.07-.09.13-.13.19l-.12.18h0l-.12.16h0l-.06.08-.12.17,0,0h0l0,0h0v0s0,0,0,0h0l0,0h0l0,0h0l0,0,0,0,0,0,0,0v0l0,0a.21.21,0,0,0,0,.06h0a3.09,3.09,0,0,0-1.88.74,4.59,4.59,0,0,0-.65,2.89,2.24,2.24,0,0,0-.34.27,22.44,22.44,0,1,1,25,5.19Zm.86-18.23a13.45,13.45,0,0,1,1.5,11.38C69.62,72.1,70.38,65.46,68.1,60.89Z"/></g></g></g></g></svg>