<svg xmlns="http://www.w3.org/2000/svg" viewBox="0 0 36.48 27.92"><defs><style>.cls-1{fill:none;stroke:#7c0e38;stroke-miterlimit:10;}</style></defs><g id="Layer_2" data-name="Layer 2"><g id="Layer_2-2" data-name="Layer 2"><path class="cls-1" d="M35.11,3.78a13.76,13.76,0,0,1-3.89,1.07,6.77,6.77,0,0,0,3-3.75,13.48,13.48,0,0,1-4.3,1.65A6.77,6.77,0,0,0,18.18,7.38a6.55,6.55,0,0,0,.18,1.54,19.21,19.21,0,0,1-14-7.08,6.79,6.79,0,0,0,2.1,9A6.77,6.77,0,0,1,3.43,10v.08a6.77,6.77,0,0,0,5.43,6.64A6.89,6.89,0,0,1,7.08,17a7.49,7.49,0,0,1-1.27-.12,6.78,6.78,0,0,0,6.32,4.7,13.64,13.64,0,0,1-8.41,2.9,12.32,12.32,0,0,1-1.61-.1,19.13,19.13,0,0,0,10.37,3c12.46,0,19.26-10.31,19.26-19.26,0-.29,0-.58,0-.88A13.72,13.72,0,0,0,35.11,3.78Z"/></g></g></svg>